<?xml version="1.0" encoding="UTF-8"?>
<!DOCTYPE svg PUBLIC "-//W3C//DTD SVG 1.1//EN" "http://www.w3.org/Graphics/SVG/1.1/DTD/svg11.dtd">
<svg version="1.1" xmlns="http://www.w3.org/2000/svg" xmlns:xlink="http://www.w3.org/1999/xlink" x="0" y="0" width="24" height="24" viewBox="0, 0, 24, 24">
  <g id="Layer_1">
    <path d="M12,-0 C18.627,-0 24,5.373 24,12 C24,18.627 18.627,24 12,24 C5.373,24 -0,18.627 -0,12 C-0,5.373 5.373,-0 12,-0 z M12,4 C11.172,4 10.5,4.565 10.5,5.263 L10.5,10.5 L5.263,10.5 C4.565,10.5 4,11.172 4,12 C4,12.828 4.565,13.5 5.263,13.5 L10.5,13.5 L10.5,18.737 C10.5,19.435 11.172,20 12,20 C12.828,20 13.5,19.435 13.5,18.737 L13.5,13.5 L18.737,13.5 C19.435,13.5 20,12.828 20,12 C20,11.172 19.435,10.5 18.737,10.5 L13.5,10.5 L13.5,5.263 C13.5,4.565 12.828,4 12,4 z" fill="#111111"/>
  </g>
</svg>
